# xmcd
#
# Track frame offsets:
#	150
#	19626
#	39259
#	59904
#	78755
#	113317
#	128814
#	148472
#	167626
#	225621
#
# Disc length: 3597 seconds
#
# Revision: 0
# Processed by: cddbd v1.5.2PL0 Copyright (c) Steve Scherf et al.
# Submitted via: dBpowerAMP V4.0
#
DISCID=7b0e0b0a
DTITLE=Gary Moore - Scars
DYEAR=1900
DGENRE=
TTITLE0=When The Sun Goes Down
TTITLE1=Rectify
TTITLE2=Wasn't Born In Chicago
TTITLE3=Stand Up
TTITLE4=Just Can't Let You Go
TTITLE5=My Baby (She's So Good To Me)
TTITLE6=World Of Confusion
TTITLE7=Ball And Chain
TTITLE8=World Keep Turning Round
TTITLE9=Who Knows (What Tomorrow May Bring)
EXTD=
EXTT0=
EXTT1=
EXTT2=
EXTT3=
EXTT4=
EXTT5=
EXTT6=
EXTT7=
EXTT8=
EXTT9=
PLAYORDER=
